
<svg xmlns="http://www.w3.org/2000/svg" version="1.1" xmlns:xlink="http://www.w3.org/1999/xlink" preserveAspectRatio="none" x="0px" y="0px" width="12px" height="6px" viewBox="0 0 12 6">
<defs/>

<g id="Layer_1">
<g transform="matrix( 1, 0, 0, 1, 0,0) ">
<g>
<g>
<path fill="#DDDDDD" stroke="none" d="
M 12 0.35
Q 11.9 0.15 11.8 0.1 11.6 0 11.45 0
L 0.55 0
Q 0.3 0 0.15 0.15 0 0.3 0 0.5 0 0.7 0.15 0.85
L 5.6 5.85
Q 5.75 6 5.95 6 6.2 6 6.35 5.85
L 11.85 0.85
Q 11.95 0.75 12 0.6 12.05 0.45 12 0.35
M 5.95 4.8
L 1.85 1 10.2 1 5.95 4.8 Z"/>

<path fill="#C5C5C5" stroke="none" d="
M 1.85 1
L 5.95 4.8 10.2 1 1.85 1 Z"/>
</g>
</g>
</g>
</g>
</svg>
